<svg width="562" height="320" viewBox="0 0 562 320" fill="none" xmlns="http://www.w3.org/2000/svg">
<rect x="561.5" y="0.5" width="319" height="560.678" rx="29.5" transform="rotate(90 561.5 0.5)" stroke="#343438"/>
<rect x="552" y="10" width="300" height="540" rx="20" transform="rotate(90 552 10)" fill="#1E1E21"/>
<rect x="47" y="111" width="227.5" height="164" rx="22" fill="#171719"/>
<mask id="mask0_286_147" style="mask-type:alpha" maskUnits="userSpaceOnUse" x="140" y="132" width="41" height="41">
<rect x="140.785" y="132.273" width="40" height="40" fill="#D9D9D9"/>
</mask>
<g mask="url(#mask0_286_147)">
<path d="M152.452 162.273C149.674 162.273 147.313 161.301 145.368 159.357C143.424 157.412 142.452 155.051 142.452 152.273C142.452 149.496 143.424 147.135 145.368 145.19C147.313 143.246 149.674 142.273 152.452 142.273C154.285 142.273 155.965 142.732 157.493 143.648C159.021 144.565 160.229 145.773 161.118 147.273H179.118V157.273H175.785V162.273H165.785V157.273H161.118C160.229 158.773 159.021 159.982 157.493 160.898C155.965 161.815 154.285 162.273 152.452 162.273ZM152.452 158.94C154.285 158.94 155.757 158.378 156.868 157.253C157.979 156.128 158.646 155.023 158.868 153.94H169.118V158.94H172.452V153.94H175.785V150.607H158.868C158.646 149.523 157.979 148.419 156.868 147.294C155.757 146.169 154.285 145.607 152.452 145.607C150.618 145.607 149.049 146.26 147.743 147.565C146.438 148.871 145.785 150.44 145.785 152.273C145.785 154.107 146.438 155.676 147.743 156.982C149.049 158.287 150.618 158.94 152.452 158.94ZM152.452 155.607C153.368 155.607 154.153 155.28 154.806 154.628C155.459 153.975 155.785 153.19 155.785 152.273C155.785 151.357 155.459 150.572 154.806 149.919C154.153 149.266 153.368 148.94 152.452 148.94C151.535 148.94 150.75 149.266 150.097 149.919C149.445 150.572 149.118 151.357 149.118 152.273C149.118 153.19 149.445 153.975 150.097 154.628C150.75 155.28 151.535 155.607 152.452 155.607Z" fill="#414147"/>
</g>
<path d="M122.588 216.308V229.398H120.619V217.995H114.457V229.398H112.488V216.308H122.588ZM125.454 233.08V219.58H127.321V221.172H127.481C127.592 220.967 127.751 220.731 127.96 220.462C128.169 220.194 128.459 219.96 128.829 219.759C129.2 219.555 129.69 219.452 130.3 219.452C131.092 219.452 131.8 219.653 132.422 220.053C133.044 220.454 133.532 221.031 133.886 221.786C134.244 222.54 134.422 223.447 134.422 224.509C134.422 225.57 134.246 226.479 133.892 227.238C133.538 227.992 133.052 228.574 132.435 228.983C131.817 229.388 131.111 229.59 130.319 229.59C129.722 229.59 129.234 229.49 128.855 229.29C128.48 229.089 128.186 228.855 127.973 228.587C127.76 228.318 127.596 228.08 127.481 227.871H127.366V233.08H125.454ZM127.327 224.489C127.327 225.18 127.427 225.785 127.628 226.305C127.828 226.825 128.118 227.232 128.497 227.526C128.876 227.815 129.341 227.96 129.891 227.96C130.462 227.96 130.939 227.809 131.322 227.506C131.706 227.2 131.996 226.784 132.192 226.26C132.392 225.736 132.492 225.146 132.492 224.489C132.492 223.842 132.394 223.26 132.198 222.744C132.006 222.229 131.717 221.822 131.329 221.523C130.945 221.225 130.466 221.076 129.891 221.076C129.337 221.076 128.868 221.219 128.484 221.504C128.105 221.79 127.817 222.188 127.621 222.7C127.425 223.211 127.327 223.808 127.327 224.489ZM138.437 226.72L142.764 219.58H144.822V229.398H142.949V222.252L138.641 229.398H136.564V219.58H138.437V226.72ZM147.392 229.398V219.58H151.464C152.572 219.58 153.449 219.817 154.097 220.29C154.745 220.759 155.069 221.396 155.069 222.201C155.069 222.776 154.886 223.232 154.519 223.569C154.153 223.906 153.667 224.131 153.062 224.246C153.501 224.298 153.903 224.43 154.27 224.643C154.636 224.852 154.93 225.133 155.152 225.487C155.378 225.84 155.491 226.262 155.491 226.752C155.491 227.272 155.356 227.732 155.088 228.133C154.819 228.529 154.43 228.84 153.918 229.066C153.411 229.288 152.8 229.398 152.084 229.398H147.392ZM149.188 227.8H152.084C152.557 227.8 152.927 227.687 153.196 227.462C153.464 227.236 153.599 226.929 153.599 226.541C153.599 226.085 153.464 225.727 153.196 225.467C152.927 225.203 152.557 225.071 152.084 225.071H149.188V227.8ZM149.188 223.671H151.483C151.841 223.671 152.148 223.62 152.403 223.518C152.663 223.415 152.861 223.271 152.998 223.083C153.138 222.891 153.209 222.665 153.209 222.406C153.209 222.026 153.053 221.73 152.742 221.517C152.431 221.304 152.005 221.197 151.464 221.197H149.188V223.671ZM160.444 229.616C159.822 229.616 159.26 229.501 158.757 229.271C158.254 229.036 157.856 228.697 157.562 228.254C157.272 227.811 157.127 227.268 157.127 226.624C157.127 226.07 157.234 225.614 157.447 225.256C157.66 224.898 157.947 224.615 158.31 224.406C158.672 224.197 159.077 224.04 159.524 223.933C159.971 223.827 160.427 223.746 160.892 223.69C161.48 223.622 161.957 223.567 162.324 223.524C162.69 223.477 162.957 223.403 163.123 223.3C163.289 223.198 163.372 223.032 163.372 222.802V222.757C163.372 222.199 163.214 221.766 162.899 221.46C162.588 221.153 162.123 220.999 161.506 220.999C160.862 220.999 160.355 221.142 159.984 221.428C159.618 221.709 159.364 222.022 159.224 222.367L157.427 221.958C157.641 221.362 157.952 220.88 158.361 220.513C158.774 220.143 159.249 219.874 159.786 219.708C160.323 219.538 160.888 219.452 161.48 219.452C161.872 219.452 162.288 219.499 162.726 219.593C163.17 219.683 163.583 219.849 163.967 220.092C164.354 220.335 164.672 220.682 164.919 221.134C165.166 221.581 165.29 222.163 165.29 222.879V229.398H163.423V228.056H163.346C163.223 228.303 163.038 228.546 162.79 228.785C162.543 229.023 162.226 229.222 161.838 229.379C161.45 229.537 160.986 229.616 160.444 229.616ZM160.86 228.082C161.388 228.082 161.84 227.977 162.215 227.768C162.594 227.56 162.882 227.287 163.078 226.95C163.278 226.609 163.378 226.245 163.378 225.857V224.592C163.31 224.66 163.178 224.724 162.982 224.783C162.79 224.839 162.571 224.888 162.324 224.93C162.077 224.969 161.836 225.005 161.601 225.039C161.367 225.069 161.171 225.094 161.013 225.116C160.643 225.163 160.304 225.241 159.997 225.352C159.694 225.463 159.452 225.623 159.268 225.832C159.089 226.036 159 226.309 159 226.65C159 227.123 159.175 227.481 159.524 227.724C159.873 227.962 160.319 228.082 160.86 228.082ZM166.618 221.229V219.58H174.902V221.229H171.699V229.398H169.833V221.229H166.618ZM183.577 223.665V225.32H178.259V223.665H183.577ZM178.796 219.58V229.398H176.923V219.58H178.796ZM184.913 219.58V229.398H183.047V219.58H184.913ZM188.908 222.955H191.759C192.961 222.955 193.886 223.254 194.533 223.85C195.181 224.447 195.505 225.216 195.505 226.158C195.505 226.771 195.36 227.323 195.07 227.813C194.78 228.303 194.356 228.691 193.798 228.977C193.24 229.258 192.56 229.398 191.759 229.398H187.47V219.58H189.343V227.749H191.759C192.309 227.749 192.761 227.607 193.114 227.321C193.468 227.031 193.645 226.663 193.645 226.215C193.645 225.742 193.468 225.357 193.114 225.058C192.761 224.756 192.309 224.604 191.759 224.604H188.908V222.955ZM196.898 229.398V219.58H198.81V229.398H196.898ZM205.606 229.597C204.639 229.597 203.805 229.39 203.107 228.977C202.412 228.559 201.875 227.973 201.496 227.219C201.121 226.46 200.933 225.572 200.933 224.553C200.933 223.548 201.121 222.661 201.496 221.894C201.875 221.127 202.403 220.528 203.081 220.098C203.763 219.668 204.56 219.452 205.472 219.452C206.026 219.452 206.563 219.544 207.082 219.727C207.602 219.911 208.069 220.198 208.482 220.59C208.896 220.982 209.222 221.491 209.46 222.118C209.699 222.74 209.818 223.496 209.818 224.387V225.065H202.014V223.633H207.945C207.945 223.13 207.843 222.685 207.639 222.297C207.434 221.905 207.146 221.596 206.776 221.37C206.409 221.144 205.979 221.031 205.484 221.031C204.948 221.031 204.479 221.163 204.078 221.428C203.682 221.687 203.375 222.028 203.158 222.45C202.945 222.868 202.838 223.322 202.838 223.812V224.93C202.838 225.587 202.953 226.145 203.183 226.605C203.418 227.065 203.744 227.417 204.161 227.66C204.579 227.898 205.067 228.018 205.625 228.018C205.987 228.018 206.318 227.967 206.616 227.864C206.914 227.758 207.172 227.6 207.389 227.391C207.607 227.183 207.773 226.925 207.888 226.618L209.697 226.944C209.552 227.477 209.292 227.943 208.917 228.344C208.546 228.74 208.08 229.049 207.517 229.271C206.959 229.488 206.322 229.597 205.606 229.597ZM129.26 251.398V241.58H131.171V245.697H132.092L135.333 241.58H137.698L133.894 246.355L137.742 251.398H135.371L132.411 247.474H131.171V251.398H129.26ZM142.084 251.616C141.462 251.616 140.899 251.501 140.397 251.271C139.894 251.036 139.495 250.697 139.201 250.254C138.912 249.811 138.767 249.268 138.767 248.624C138.767 248.07 138.873 247.614 139.086 247.256C139.299 246.898 139.587 246.615 139.949 246.406C140.311 246.197 140.716 246.04 141.164 245.933C141.611 245.827 142.067 245.746 142.532 245.69C143.12 245.622 143.597 245.567 143.963 245.524C144.33 245.477 144.596 245.403 144.762 245.3C144.929 245.198 145.012 245.032 145.012 244.802V244.757C145.012 244.199 144.854 243.766 144.539 243.46C144.228 243.153 143.763 242.999 143.145 242.999C142.502 242.999 141.995 243.142 141.624 243.428C141.257 243.709 141.004 244.022 140.863 244.367L139.067 243.958C139.28 243.362 139.591 242.88 140 242.513C140.414 242.143 140.889 241.874 141.426 241.708C141.963 241.538 142.527 241.452 143.12 241.452C143.512 241.452 143.927 241.499 144.366 241.593C144.809 241.683 145.223 241.849 145.606 242.092C145.994 242.335 146.311 242.682 146.559 243.134C146.806 243.581 146.929 244.163 146.929 244.879V251.398H145.063V250.056H144.986C144.863 250.303 144.677 250.546 144.43 250.785C144.183 251.023 143.865 251.222 143.478 251.379C143.09 251.537 142.625 251.616 142.084 251.616ZM142.5 250.082C143.028 250.082 143.48 249.977 143.855 249.768C144.234 249.56 144.522 249.287 144.718 248.95C144.918 248.609 145.018 248.245 145.018 247.857V246.592C144.95 246.66 144.818 246.724 144.622 246.783C144.43 246.839 144.211 246.888 143.963 246.93C143.716 246.969 143.475 247.005 143.241 247.039C143.007 247.069 142.811 247.094 142.653 247.116C142.282 247.163 141.944 247.241 141.637 247.352C141.334 247.463 141.091 247.623 140.908 247.832C140.729 248.036 140.64 248.309 140.64 248.65C140.64 249.123 140.814 249.481 141.164 249.724C141.513 249.962 141.958 250.082 142.5 250.082ZM156.129 245.665V247.32H150.811V245.665H156.129ZM151.348 241.58V251.398H149.475V241.58H151.348ZM157.465 241.58V251.398H155.599V241.58H157.465ZM162.879 251.616C162.257 251.616 161.694 251.501 161.192 251.271C160.689 251.036 160.29 250.697 159.996 250.254C159.706 249.811 159.562 249.268 159.562 248.624C159.562 248.07 159.668 247.614 159.881 247.256C160.094 246.898 160.382 246.615 160.744 246.406C161.106 246.197 161.511 246.04 161.959 245.933C162.406 245.827 162.862 245.746 163.327 245.69C163.915 245.622 164.392 245.567 164.758 245.524C165.125 245.477 165.391 245.403 165.557 245.3C165.724 245.198 165.807 245.032 165.807 244.802V244.757C165.807 244.199 165.649 243.766 165.334 243.46C165.023 243.153 164.558 242.999 163.94 242.999C163.297 242.999 162.79 243.142 162.419 243.428C162.052 243.709 161.799 244.022 161.658 244.367L159.862 243.958C160.075 243.362 160.386 242.88 160.795 242.513C161.209 242.143 161.684 241.874 162.221 241.708C162.758 241.538 163.322 241.452 163.915 241.452C164.307 241.452 164.722 241.499 165.161 241.593C165.604 241.683 166.018 241.849 166.401 242.092C166.789 242.335 167.106 242.682 167.353 243.134C167.601 243.581 167.724 244.163 167.724 244.879V251.398H165.858V250.056H165.781C165.657 250.303 165.472 250.546 165.225 250.785C164.978 251.023 164.66 251.222 164.273 251.379C163.885 251.537 163.42 251.616 162.879 251.616ZM163.295 250.082C163.823 250.082 164.275 249.977 164.65 249.768C165.029 249.56 165.317 249.287 165.513 248.95C165.713 248.609 165.813 248.245 165.813 247.857V246.592C165.745 246.66 165.613 246.724 165.417 246.783C165.225 246.839 165.005 246.888 164.758 246.93C164.511 246.969 164.27 247.005 164.036 247.039C163.802 247.069 163.606 247.094 163.448 247.116C163.077 247.163 162.738 247.241 162.432 247.352C162.129 247.463 161.886 247.623 161.703 247.832C161.524 248.036 161.434 248.309 161.434 248.65C161.434 249.123 161.609 249.481 161.959 249.724C162.308 249.962 162.753 250.082 163.295 250.082ZM169.496 251.398L169.49 249.743H169.842C170.114 249.743 170.342 249.685 170.526 249.57C170.713 249.451 170.866 249.251 170.986 248.969C171.105 248.688 171.197 248.3 171.261 247.806C171.325 247.308 171.371 246.681 171.401 245.927L171.574 241.58H178.426V251.398H176.553V243.229H173.344L173.191 246.566C173.153 247.376 173.07 248.083 172.942 248.688C172.818 249.293 172.637 249.798 172.398 250.203C172.16 250.604 171.853 250.904 171.478 251.104C171.103 251.3 170.647 251.398 170.11 251.398H169.496ZM182.413 244.955H185.264C186.466 244.955 187.39 245.254 188.038 245.85C188.686 246.447 189.01 247.216 189.01 248.158C189.01 248.771 188.865 249.323 188.575 249.813C188.285 250.303 187.861 250.691 187.303 250.977C186.745 251.258 186.065 251.398 185.264 251.398H180.975V241.58H182.848V249.749H185.264C185.814 249.749 186.265 249.607 186.619 249.321C186.973 249.031 187.15 248.663 187.15 248.215C187.15 247.742 186.973 247.357 186.619 247.058C186.265 246.756 185.814 246.604 185.264 246.604H182.413V244.955ZM190.403 251.398V241.58H192.314V251.398H190.403Z" fill="#414147"/>
<rect x="289.5" y="111" width="227.5" height="164" rx="22" fill="#171719"/>
<mask id="mask1_286_147" style="mask-type:alpha" maskUnits="userSpaceOnUse" x="383" y="132" width="41" height="41">
<rect x="383.843" y="132.273" width="40" height="40" fill="#D9D9D9"/>
</mask>
<g mask="url(#mask1_286_147)">
<path d="M390.509 168.939V150.606H387.176V140.606H395.843C395.704 140.356 395.614 140.092 395.572 139.814C395.53 139.537 395.509 139.245 395.509 138.939C395.509 137.551 395.996 136.37 396.968 135.398C397.94 134.426 399.121 133.939 400.509 133.939C401.148 133.939 401.746 134.058 402.301 134.294C402.857 134.53 403.371 134.856 403.843 135.273C404.315 134.828 404.829 134.495 405.384 134.273C405.94 134.051 406.537 133.939 407.176 133.939C408.565 133.939 409.746 134.426 410.718 135.398C411.69 136.37 412.176 137.551 412.176 138.939C412.176 139.245 412.148 139.53 412.093 139.794C412.037 140.058 411.954 140.328 411.843 140.606H420.509V150.606H417.176V168.939H390.509ZM407.176 137.273C406.704 137.273 406.308 137.433 405.989 137.752C405.669 138.071 405.509 138.467 405.509 138.939C405.509 139.412 405.669 139.808 405.989 140.127C406.308 140.446 406.704 140.606 407.176 140.606C407.648 140.606 408.044 140.446 408.364 140.127C408.683 139.808 408.843 139.412 408.843 138.939C408.843 138.467 408.683 138.071 408.364 137.752C408.044 137.433 407.648 137.273 407.176 137.273ZM398.843 138.939C398.843 139.412 399.003 139.808 399.322 140.127C399.641 140.446 400.037 140.606 400.509 140.606C400.982 140.606 401.378 140.446 401.697 140.127C402.016 139.808 402.176 139.412 402.176 138.939C402.176 138.467 402.016 138.071 401.697 137.752C401.378 137.433 400.982 137.273 400.509 137.273C400.037 137.273 399.641 137.433 399.322 137.752C399.003 138.071 398.843 138.467 398.843 138.939ZM390.509 143.939V147.273H402.176V143.939H390.509ZM402.176 165.606V150.606H393.843V165.606H402.176ZM405.509 165.606H413.843V150.606H405.509V165.606ZM417.176 147.273V143.939H405.509V147.273H417.176Z" fill="#414147"/>
</g>
<path d="M345.717 229.398V216.308H347.693V221.996H354.219V216.308H356.2V229.398H354.219V223.69H347.693V229.398H345.717ZM363.059 229.597C362.139 229.597 361.335 229.386 360.649 228.964C359.963 228.542 359.43 227.952 359.051 227.193C358.672 226.435 358.482 225.548 358.482 224.534C358.482 223.516 358.672 222.625 359.051 221.862C359.43 221.099 359.963 220.507 360.649 220.085C361.335 219.663 362.139 219.452 363.059 219.452C363.979 219.452 364.783 219.663 365.469 220.085C366.155 220.507 366.688 221.099 367.067 221.862C367.446 222.625 367.636 223.516 367.636 224.534C367.636 225.548 367.446 226.435 367.067 227.193C366.688 227.952 366.155 228.542 365.469 228.964C364.783 229.386 363.979 229.597 363.059 229.597ZM363.065 227.992C363.662 227.992 364.156 227.835 364.548 227.519C364.94 227.204 365.23 226.784 365.418 226.26C365.609 225.736 365.705 225.158 365.705 224.528C365.705 223.901 365.609 223.326 365.418 222.802C365.23 222.273 364.94 221.849 364.548 221.53C364.156 221.21 363.662 221.05 363.065 221.05C362.465 221.05 361.966 221.21 361.57 221.53C361.178 221.849 360.886 222.273 360.694 222.802C360.506 223.326 360.413 223.901 360.413 224.528C360.413 225.158 360.506 225.736 360.694 226.26C360.886 226.784 361.178 227.204 361.57 227.519C361.966 227.835 362.465 227.992 363.065 227.992ZM369.769 229.398V219.58H373.841C374.949 219.58 375.827 219.817 376.474 220.29C377.122 220.759 377.446 221.396 377.446 222.201C377.446 222.776 377.263 223.232 376.896 223.569C376.53 223.906 376.044 224.131 375.439 224.246C375.878 224.298 376.28 224.43 376.647 224.643C377.013 224.852 377.307 225.133 377.529 225.487C377.755 225.84 377.868 226.262 377.868 226.752C377.868 227.272 377.734 227.732 377.465 228.133C377.197 228.529 376.807 228.84 376.295 229.066C375.788 229.288 375.177 229.398 374.461 229.398H369.769ZM371.565 227.8H374.461C374.934 227.8 375.305 227.687 375.573 227.462C375.842 227.236 375.976 226.929 375.976 226.541C375.976 226.085 375.842 225.727 375.573 225.467C375.305 225.203 374.934 225.071 374.461 225.071H371.565V227.8ZM371.565 223.671H373.86C374.218 223.671 374.525 223.62 374.78 223.518C375.04 223.415 375.239 223.271 375.375 223.083C375.516 222.891 375.586 222.665 375.586 222.406C375.586 222.026 375.43 221.73 375.119 221.517C374.808 221.304 374.382 221.197 373.841 221.197H371.565V223.671ZM381.403 222.955H384.253C385.455 222.955 386.38 223.254 387.028 223.85C387.675 224.447 387.999 225.216 387.999 226.158C387.999 226.771 387.854 227.323 387.565 227.813C387.275 228.303 386.851 228.691 386.293 228.977C385.734 229.258 385.055 229.398 384.253 229.398H379.964V219.58H381.837V227.749H384.253C384.803 227.749 385.255 227.607 385.609 227.321C385.962 227.031 386.139 226.663 386.139 226.215C386.139 225.742 385.962 225.357 385.609 225.058C385.255 224.756 384.803 224.604 384.253 224.604H381.403V222.955ZM389.393 229.398V219.58H391.304V229.398H389.393ZM398.1 229.597C397.133 229.597 396.3 229.39 395.601 228.977C394.906 228.559 394.369 227.973 393.99 227.219C393.615 226.46 393.428 225.572 393.428 224.553C393.428 223.548 393.615 222.661 393.99 221.894C394.369 221.127 394.898 220.528 395.575 220.098C396.257 219.668 397.054 219.452 397.966 219.452C398.52 219.452 399.057 219.544 399.577 219.727C400.097 219.911 400.563 220.198 400.977 220.59C401.39 220.982 401.716 221.491 401.955 222.118C402.193 222.74 402.313 223.496 402.313 224.387V225.065H394.508V223.633H400.44C400.44 223.13 400.337 222.685 400.133 222.297C399.928 221.905 399.641 221.596 399.27 221.37C398.903 221.144 398.473 221.031 397.979 221.031C397.442 221.031 396.973 221.163 396.573 221.428C396.176 221.687 395.869 222.028 395.652 222.45C395.439 222.868 395.332 223.322 395.332 223.812V224.93C395.332 225.587 395.448 226.145 395.678 226.605C395.912 227.065 396.238 227.417 396.656 227.66C397.073 227.898 397.561 228.018 398.119 228.018C398.482 228.018 398.812 227.967 399.11 227.864C399.408 227.758 399.666 227.6 399.884 227.391C400.101 227.183 400.267 226.925 400.382 226.618L402.191 226.944C402.046 227.477 401.786 227.943 401.411 228.344C401.041 228.74 400.574 229.049 400.011 229.271C399.453 229.488 398.816 229.597 398.1 229.597ZM409.197 229.398V219.58H417.206V229.398H415.333V221.229H411.057V229.398H409.197ZM419.761 233.08V219.58H421.628V221.172H421.788C421.898 220.967 422.058 220.731 422.267 220.462C422.476 220.194 422.766 219.96 423.136 219.759C423.507 219.555 423.997 219.452 424.606 219.452C425.399 219.452 426.106 219.653 426.729 220.053C427.351 220.454 427.839 221.031 428.192 221.786C428.55 222.54 428.729 223.447 428.729 224.509C428.729 225.57 428.552 226.479 428.199 227.238C427.845 227.992 427.359 228.574 426.741 228.983C426.123 229.388 425.418 229.59 424.626 229.59C424.029 229.59 423.541 229.49 423.162 229.29C422.787 229.089 422.493 228.855 422.28 228.587C422.067 228.318 421.903 228.08 421.788 227.871H421.672V233.08H419.761ZM421.634 224.489C421.634 225.18 421.734 225.785 421.935 226.305C422.135 226.825 422.425 227.232 422.804 227.526C423.183 227.815 423.648 227.96 424.197 227.96C424.768 227.96 425.246 227.809 425.629 227.506C426.013 227.2 426.302 226.784 426.498 226.26C426.699 225.736 426.799 225.146 426.799 224.489C426.799 223.842 426.701 223.26 426.505 222.744C426.313 222.229 426.023 221.822 425.636 221.523C425.252 221.225 424.773 221.076 424.197 221.076C423.643 221.076 423.175 221.219 422.791 221.504C422.412 221.79 422.124 222.188 421.928 222.7C421.732 223.211 421.634 223.808 421.634 224.489ZM432.744 226.72L437.071 219.58H439.129V229.398H437.256V222.252L432.948 229.398H430.871V219.58H432.744V226.72ZM441.117 226.803H443.073C443.099 227.204 443.28 227.513 443.616 227.73C443.957 227.947 444.398 228.056 444.94 228.056C445.489 228.056 445.958 227.939 446.346 227.705C446.734 227.466 446.927 227.097 446.927 226.599C446.927 226.3 446.853 226.04 446.704 225.819C446.559 225.593 446.352 225.418 446.084 225.295C445.82 225.171 445.506 225.109 445.144 225.109H443.546V223.607H445.144C445.685 223.607 446.09 223.484 446.359 223.237C446.627 222.989 446.761 222.68 446.761 222.31C446.761 221.909 446.616 221.587 446.327 221.344C446.041 221.097 445.643 220.974 445.131 220.974C444.611 220.974 444.179 221.091 443.834 221.325C443.489 221.555 443.307 221.854 443.29 222.22H441.36C441.373 221.67 441.539 221.189 441.859 220.776C442.182 220.358 442.617 220.034 443.163 219.804C443.712 219.57 444.337 219.452 445.035 219.452C445.764 219.452 446.395 219.57 446.927 219.804C447.46 220.038 447.871 220.362 448.161 220.776C448.455 221.189 448.602 221.664 448.602 222.201C448.602 222.742 448.44 223.185 448.116 223.531C447.797 223.871 447.379 224.116 446.864 224.266V224.368C447.243 224.393 447.579 224.509 447.873 224.713C448.168 224.918 448.398 225.188 448.564 225.525C448.73 225.862 448.813 226.243 448.813 226.669C448.813 227.27 448.647 227.79 448.315 228.229C447.986 228.668 447.53 229.006 446.947 229.245C446.367 229.479 445.704 229.597 444.959 229.597C444.234 229.597 443.584 229.484 443.009 229.258C442.438 229.028 441.984 228.704 441.648 228.286C441.315 227.869 441.138 227.374 441.117 226.803ZM452.225 222.955H455.076C456.277 222.955 457.202 223.254 457.85 223.85C458.498 224.447 458.821 225.216 458.821 226.158C458.821 226.771 458.677 227.323 458.387 227.813C458.097 228.303 457.673 228.691 457.115 228.977C456.557 229.258 455.877 229.398 455.076 229.398H450.787V219.58H452.66V227.749H455.076C455.625 227.749 456.077 227.607 456.431 227.321C456.785 227.031 456.961 226.663 456.961 226.215C456.961 225.742 456.785 225.357 456.431 225.058C456.077 224.756 455.625 224.604 455.076 224.604H452.225V222.955ZM460.215 229.398V219.58H462.126V229.398H460.215ZM362.149 251.398V241.58H366.221C367.329 241.58 368.206 241.817 368.854 242.29C369.502 242.759 369.826 243.396 369.826 244.201C369.826 244.776 369.643 245.232 369.276 245.569C368.91 245.906 368.424 246.131 367.819 246.246C368.258 246.298 368.66 246.43 369.027 246.643C369.393 246.852 369.687 247.133 369.909 247.487C370.135 247.84 370.248 248.262 370.248 248.752C370.248 249.272 370.113 249.732 369.845 250.133C369.577 250.529 369.187 250.84 368.675 251.066C368.168 251.288 367.557 251.398 366.841 251.398H362.149ZM363.945 249.8H366.841C367.314 249.8 367.684 249.687 367.953 249.462C368.221 249.236 368.356 248.929 368.356 248.541C368.356 248.085 368.221 247.727 367.953 247.467C367.684 247.203 367.314 247.071 366.841 247.071H363.945V249.8ZM363.945 245.671H366.24C366.598 245.671 366.905 245.62 367.16 245.518C367.42 245.415 367.618 245.271 367.755 245.083C367.895 244.891 367.966 244.665 367.966 244.406C367.966 244.026 367.81 243.73 367.499 243.517C367.188 243.304 366.762 243.197 366.221 243.197H363.945V245.671ZM377.108 255.08V241.58H378.974V243.172H379.134C379.245 242.967 379.405 242.731 379.614 242.462C379.822 242.194 380.112 241.96 380.483 241.759C380.854 241.555 381.344 241.452 381.953 241.452C382.746 241.452 383.453 241.653 384.075 242.053C384.697 242.454 385.185 243.031 385.539 243.786C385.897 244.54 386.076 245.447 386.076 246.509C386.076 247.57 385.899 248.479 385.545 249.238C385.192 249.992 384.706 250.574 384.088 250.983C383.47 251.388 382.765 251.59 381.972 251.59C381.376 251.59 380.888 251.49 380.509 251.29C380.134 251.089 379.839 250.855 379.626 250.587C379.413 250.318 379.249 250.08 379.134 249.871H379.019V255.08H377.108ZM378.981 246.489C378.981 247.18 379.081 247.785 379.281 248.305C379.482 248.825 379.771 249.232 380.151 249.526C380.53 249.815 380.994 249.96 381.544 249.96C382.115 249.96 382.592 249.809 382.976 249.506C383.359 249.2 383.649 248.784 383.845 248.26C384.045 247.736 384.146 247.146 384.146 246.489C384.146 245.842 384.048 245.26 383.852 244.744C383.66 244.229 383.37 243.822 382.982 243.523C382.599 243.225 382.119 243.076 381.544 243.076C380.99 243.076 380.521 243.219 380.138 243.504C379.759 243.79 379.471 244.188 379.275 244.7C379.079 245.211 378.981 245.808 378.981 246.489ZM389.091 255.08C388.806 255.08 388.546 255.057 388.312 255.01C388.077 254.967 387.903 254.92 387.787 254.869L388.248 253.303C388.597 253.397 388.908 253.438 389.181 253.425C389.454 253.412 389.694 253.31 389.903 253.118C390.116 252.926 390.304 252.613 390.466 252.178L390.702 251.526L387.11 241.58H389.155L391.642 249.2H391.744L394.231 241.58H396.282L392.236 252.709C392.049 253.22 391.81 253.653 391.52 254.006C391.231 254.364 390.885 254.633 390.485 254.812C390.084 254.991 389.62 255.08 389.091 255.08ZM396.497 251.398L396.49 249.743H396.842C397.115 249.743 397.342 249.685 397.526 249.57C397.713 249.451 397.867 249.251 397.986 248.969C398.105 248.688 398.197 248.3 398.261 247.806C398.325 247.308 398.372 246.681 398.401 245.927L398.574 241.58H405.426V251.398H403.553V243.229H400.345L400.191 246.566C400.153 247.376 400.07 248.083 399.942 248.688C399.818 249.293 399.637 249.798 399.399 250.203C399.16 250.604 398.853 250.904 398.478 251.104C398.103 251.3 397.647 251.398 397.11 251.398H396.497ZM412.207 251.597C411.239 251.597 410.406 251.39 409.707 250.977C409.013 250.559 408.476 249.973 408.097 249.219C407.722 248.46 407.534 247.572 407.534 246.553C407.534 245.548 407.722 244.661 408.097 243.894C408.476 243.127 409.004 242.528 409.682 242.098C410.364 241.668 411.161 241.452 412.072 241.452C412.626 241.452 413.163 241.544 413.683 241.727C414.203 241.911 414.67 242.198 415.083 242.59C415.496 242.982 415.822 243.491 416.061 244.118C416.3 244.74 416.419 245.496 416.419 246.387V247.065H408.614V245.633H414.546C414.546 245.13 414.444 244.685 414.239 244.297C414.035 243.905 413.747 243.596 413.376 243.37C413.01 243.144 412.58 243.031 412.085 243.031C411.548 243.031 411.08 243.163 410.679 243.428C410.283 243.687 409.976 244.028 409.759 244.45C409.545 244.868 409.439 245.322 409.439 245.812V246.93C409.439 247.587 409.554 248.145 409.784 248.605C410.018 249.065 410.344 249.417 410.762 249.66C411.18 249.898 411.668 250.018 412.226 250.018C412.588 250.018 412.918 249.967 413.217 249.864C413.515 249.758 413.773 249.6 413.99 249.391C414.207 249.183 414.374 248.925 414.489 248.618L416.298 248.944C416.153 249.477 415.893 249.943 415.518 250.344C415.147 250.74 414.68 251.049 414.118 251.271C413.56 251.488 412.923 251.597 412.207 251.597ZM417.673 243.229V241.58H425.958V243.229H422.755V251.398H420.889V243.229H417.673ZM427.979 251.398V241.58H429.89V245.697H430.811L434.051 241.58H436.417L432.613 246.355L436.461 251.398H434.09L431.13 247.474H429.89V251.398H427.979ZM441.773 251.597C440.806 251.597 439.973 251.39 439.274 250.977C438.579 250.559 438.042 249.973 437.663 249.219C437.288 248.46 437.1 247.572 437.1 246.553C437.1 245.548 437.288 244.661 437.663 243.894C438.042 243.127 438.571 242.528 439.248 242.098C439.93 241.668 440.727 241.452 441.639 241.452C442.193 241.452 442.73 241.544 443.25 241.727C443.77 241.911 444.236 242.198 444.649 242.59C445.063 242.982 445.389 243.491 445.627 244.118C445.866 244.74 445.985 245.496 445.985 246.387V247.065H438.181V245.633H444.113C444.113 245.13 444.01 244.685 443.806 244.297C443.601 243.905 443.314 243.596 442.943 243.37C442.576 243.144 442.146 243.031 441.652 243.031C441.115 243.031 440.646 243.163 440.245 243.428C439.849 243.687 439.542 244.028 439.325 244.45C439.112 244.868 439.005 245.322 439.005 245.812V246.93C439.005 247.587 439.12 248.145 439.35 248.605C439.585 249.065 439.911 249.417 440.328 249.66C440.746 249.898 441.234 250.018 441.792 250.018C442.154 250.018 442.485 249.967 442.783 249.864C443.081 249.758 443.339 249.6 443.556 249.391C443.774 249.183 443.94 248.925 444.055 248.618L445.864 248.944C445.719 249.477 445.459 249.943 445.084 250.344C444.713 250.74 444.247 251.049 443.684 251.271C443.126 251.488 442.489 251.597 441.773 251.597Z" fill="#414147"/>
<rect x="169" y="41.0039" width="50" height="50" rx="9.09091" fill="url(#paint0_linear_286_147)"/>
<path d="M176.955 56.5522H209.926V60.958H176.955V56.5522ZM189.883 48.3906L194.614 49.2212C191.761 57.0217 187.789 66.7 184.863 72.9476L180.458 71.3587C183.347 65.4722 187.319 55.7938 189.883 48.3906ZM199.995 58.719L204.762 59.8024C201.873 74.8255 195.192 80.062 179.555 82.3732C179.121 81.037 178.146 79.1952 177.28 78.0757C191.761 76.4145 197.611 72.0448 199.995 58.719ZM182.841 70.6364L185.766 67.2417C193.458 69.8058 204.003 74.5366 209.312 78.4007L205.99 82.4815C201.15 78.5813 190.894 73.5254 182.841 70.6364Z" fill="white"/>
<path d="M256.807 54.2273V77.5H251.943V58.2273H242.534V77.5H237.67V54.2273H256.807ZM269.287 77.8409C267.522 77.8409 265.995 77.4659 264.707 76.7159C263.427 75.9583 262.438 74.9053 261.741 73.5568C261.045 72.2008 260.696 70.6288 260.696 68.8409C260.696 67.0379 261.045 65.4621 261.741 64.1136C262.438 62.7576 263.427 61.7045 264.707 60.9545C265.995 60.197 267.522 59.8182 269.287 59.8182C271.052 59.8182 272.575 60.197 273.855 60.9545C275.143 61.7045 276.135 62.7576 276.832 64.1136C277.529 65.4621 277.878 67.0379 277.878 68.8409C277.878 70.6288 277.529 72.2008 276.832 73.5568C276.135 74.9053 275.143 75.9583 273.855 76.7159C272.575 77.4659 271.052 77.8409 269.287 77.8409ZM269.31 74.0909C270.113 74.0909 270.783 73.8636 271.321 73.4091C271.859 72.947 272.264 72.3182 272.537 71.5227C272.817 70.7273 272.957 69.822 272.957 68.8068C272.957 67.7917 272.817 66.8864 272.537 66.0909C272.264 65.2955 271.859 64.6667 271.321 64.2045C270.783 63.7424 270.113 63.5114 269.31 63.5114C268.499 63.5114 267.817 63.7424 267.264 64.2045C266.719 64.6667 266.306 65.2955 266.026 66.0909C265.753 66.8864 265.616 67.7917 265.616 68.8068C265.616 69.822 265.753 70.7273 266.026 71.5227C266.306 72.3182 266.719 72.947 267.264 73.4091C267.817 73.8636 268.499 74.0909 269.31 74.0909ZM279.662 82.6136V73.6591H281.003C281.389 73.4167 281.7 73.0303 281.935 72.5C282.177 71.9697 282.374 71.3447 282.526 70.625C282.685 69.9053 282.806 69.1288 282.889 68.2955C282.98 67.4545 283.06 66.6061 283.128 65.75L283.582 60.0455H296.969V73.6591H299.673V82.6136H295.06V77.5H284.389V82.6136H279.662ZM285.821 73.6591H292.401V63.7727H287.696L287.514 65.75C287.385 67.6136 287.2 69.197 286.957 70.5C286.715 71.7955 286.336 72.8485 285.821 73.6591ZM302.494 77.5V60.0455H317.756V77.5H313.131V63.8523H307.062V77.5H302.494ZM326.244 71.1136L332.528 60.0455H337.301V77.5H332.688V66.3977L326.426 77.5H321.619V60.0455H326.244V71.1136ZM349.068 77.8409C347.28 77.8409 345.742 77.4621 344.455 76.7045C343.174 75.9394 342.189 74.8788 341.5 73.5227C340.818 72.1667 340.477 70.6061 340.477 68.8409C340.477 67.053 340.822 65.4848 341.511 64.1364C342.208 62.7803 343.197 61.7235 344.477 60.9659C345.758 60.2008 347.28 59.8182 349.045 59.8182C350.568 59.8182 351.902 60.0947 353.045 60.6477C354.189 61.2008 355.095 61.9773 355.761 62.9773C356.428 63.9773 356.795 65.1515 356.864 66.5H352.295C352.167 65.6288 351.826 64.928 351.273 64.3977C350.727 63.8598 350.011 63.5909 349.125 63.5909C348.375 63.5909 347.72 63.7955 347.159 64.2045C346.606 64.6061 346.174 65.1932 345.864 65.9659C345.553 66.7386 345.398 67.6742 345.398 68.7727C345.398 69.8864 345.549 70.8333 345.852 71.6136C346.163 72.3939 346.598 72.9886 347.159 73.3977C347.72 73.8068 348.375 74.0114 349.125 74.0114C349.678 74.0114 350.174 73.8977 350.614 73.6705C351.061 73.4432 351.428 73.1136 351.716 72.6818C352.011 72.2424 352.205 71.7159 352.295 71.1023H356.864C356.788 72.4356 356.424 73.6098 355.773 74.625C355.129 75.6326 354.239 76.4205 353.102 76.9886C351.966 77.5568 350.621 77.8409 349.068 77.8409ZM359.963 77.5V60.0455H364.804V66.8182H366.168L370.918 60.0455H376.599L370.429 68.7045L376.668 77.5H370.918L366.611 71.3068H364.804V77.5H359.963ZM383.69 77.8295C382.577 77.8295 381.584 77.6364 380.713 77.25C379.842 76.8561 379.152 76.2765 378.645 75.5114C378.145 74.7386 377.895 73.7765 377.895 72.625C377.895 71.6553 378.073 70.8409 378.429 70.1818C378.785 69.5227 379.27 68.9924 379.884 68.5909C380.497 68.1894 381.194 67.8864 381.974 67.6818C382.762 67.4773 383.588 67.3333 384.452 67.25C385.467 67.1439 386.285 67.0455 386.906 66.9545C387.527 66.8561 387.978 66.7121 388.259 66.5227C388.539 66.3333 388.679 66.053 388.679 65.6818V65.6136C388.679 64.8939 388.452 64.3371 387.997 63.9432C387.55 63.5492 386.914 63.3523 386.088 63.3523C385.217 63.3523 384.524 63.5455 384.009 63.9318C383.493 64.3106 383.152 64.7879 382.986 65.3636L378.509 65C378.736 63.9394 379.183 63.0227 379.849 62.25C380.516 61.4697 381.376 60.8712 382.429 60.4545C383.49 60.0303 384.717 59.8182 386.111 59.8182C387.08 59.8182 388.009 59.9318 388.895 60.1591C389.789 60.3864 390.58 60.7386 391.27 61.2159C391.967 61.6932 392.516 62.3068 392.918 63.0568C393.319 63.7992 393.52 64.6894 393.52 65.7273V77.5H388.929V75.0795H388.793C388.512 75.625 388.137 76.1061 387.668 76.5227C387.198 76.9318 386.634 77.2538 385.974 77.4886C385.315 77.7159 384.554 77.8295 383.69 77.8295ZM385.077 74.4886C385.789 74.4886 386.418 74.3485 386.963 74.0682C387.509 73.7803 387.937 73.3939 388.247 72.9091C388.558 72.4242 388.713 71.875 388.713 71.2614V69.4091C388.562 69.5076 388.353 69.5985 388.088 69.6818C387.83 69.7576 387.539 69.8295 387.213 69.8977C386.887 69.9583 386.562 70.0152 386.236 70.0682C385.91 70.1136 385.615 70.1553 385.349 70.1932C384.781 70.2765 384.285 70.4091 383.861 70.5909C383.437 70.7727 383.107 71.0189 382.872 71.3295C382.637 71.6326 382.52 72.0114 382.52 72.4659C382.52 73.125 382.759 73.6288 383.236 73.9773C383.721 74.3182 384.334 74.4886 385.077 74.4886Z" fill="white"/>
<defs>
<linearGradient id="paint0_linear_286_147" x1="219" y1="41.0039" x2="180.414" y2="98.6447" gradientUnits="userSpaceOnUse">
<stop stop-color="#FF002B"/>
<stop offset="0.0001" stop-color="#FF0019"/>
<stop offset="1" stop-color="#B30047"/>
</linearGradient>
</defs>
</svg>
