<svg width="560" height="560" viewBox="0 0 560 560" fill="none" xmlns="http://www.w3.org/2000/svg"><g opacity="0.65"><rect x="448.375" y="0.00195312" width="112.563" height="112.563" transform="rotate(90 448.375 0.00195312)" fill="#1E1E21"/><rect x="112.563" y="223.252" width="112.563" height="112.563" transform="rotate(90 112.563 223.252)" fill="#1E1E21"/><rect x="560" y="111.627" width="112.563" height="112.563" transform="rotate(90 560 111.627)" fill="#1E1E21"/><rect x="448.375" y="334.875" width="112.563" height="112.563" transform="rotate(90 448.375 334.875)" fill="#1E1E21"/><rect x="335.432" y="112.007" width="111.803" height="111.803" transform="rotate(90 335.432 112.007)" stroke="#343438" stroke-width="0.760241"/><rect x="335.432" y="223.632" width="111.803" height="111.803" transform="rotate(90 335.432 223.632)" stroke="#343438" stroke-width="0.760241"/><rect x="223.807" y="112.007" width="111.803" height="111.803" transform="rotate(90 223.807 112.007)" stroke="#343438" stroke-width="0.760241"/><rect x="223.807" y="223.632" width="111.803" height="111.803" transform="rotate(90 223.807 223.632)" stroke="#343438" stroke-width="0.760241"/><rect x="223.807" y="335.255" width="111.803" height="111.803" transform="rotate(90 223.807 335.255)" stroke="#343438" stroke-width="0.760241"/><rect x="223.807" y="446.882" width="111.803" height="111.803" transform="rotate(90 223.807 446.882)" stroke="#343438" stroke-width="0.760241"/><rect x="112.183" y="335.255" width="111.803" height="111.803" transform="rotate(90 112.183 335.255)" stroke="#343438" stroke-width="0.760241"/><rect x="223.807" y="0.382074" width="111.803" height="111.803" transform="rotate(90 223.807 0.382074)" stroke="#343438" stroke-width="0.760241"/><rect x="559.62" y="223.632" width="111.803" height="111.803" transform="rotate(90 559.62 223.632)" stroke="#343438" stroke-width="0.760241"/><rect x="447.995" y="112.007" width="111.803" height="111.803" transform="rotate(90 447.995 112.007)" stroke="#343438" stroke-width="0.760241"/><rect x="447.995" y="223.632" width="111.803" height="111.803" transform="rotate(90 447.995 223.632)" stroke="#343438" stroke-width="0.760241"/><rect x="447.995" y="446.882" width="111.803" height="111.803" transform="rotate(90 447.995 446.882)" stroke="#343438" stroke-width="0.760241"/></g></svg>
