<svg width="560" height="560" viewBox="0 0 560 560" fill="none" xmlns="http://www.w3.org/2000/svg">
<rect x="373.756" y="496.652" width="63.3484" height="63.3484" transform="rotate(90 373.756 496.652)" fill="#1E1E21"/>
<rect x="187.511" y="496.652" width="63.3484" height="63.3484" transform="rotate(90 187.511 496.652)" fill="#1E1E21"/>
<rect x="187.511" y="434.57" width="63.3484" height="63.3484" transform="rotate(90 187.511 434.57)" fill="#1E1E21"/>
<rect x="373.756" y="434.57" width="63.3484" height="63.3484" transform="rotate(90 373.756 434.57)" fill="#1E1E21"/>
<rect x="125.43" y="372.488" width="63.3484" height="63.3484" transform="rotate(90 125.43 372.488)" fill="#1E1E21"/>
<rect x="435.837" y="372.488" width="63.3484" height="63.3484" transform="rotate(90 435.837 372.488)" fill="#1E1E21"/>
<rect x="125.43" y="310.406" width="63.3484" height="63.3484" transform="rotate(90 125.43 310.406)" fill="#1E1E21"/>
<rect x="435.837" y="310.406" width="63.3484" height="63.3484" transform="rotate(90 435.837 310.406)" fill="#1E1E21"/>
<rect x="125.43" y="248.324" width="63.3484" height="63.3484" transform="rotate(90 125.43 248.324)" fill="#1E1E21"/>
<rect x="125.43" y="186.246" width="63.3484" height="63.3484" transform="rotate(90 125.43 186.246)" fill="#1E1E21"/>
<rect x="435.837" y="248.324" width="63.3484" height="63.3484" transform="rotate(90 435.837 248.324)" fill="#1E1E21"/>
<rect x="435.837" y="186.246" width="63.3484" height="63.3484" transform="rotate(90 435.837 186.246)" fill="#1E1E21"/>
<rect x="497.919" y="186.246" width="63.3484" height="63.3484" transform="rotate(90 497.919 186.246)" fill="#1E1E21"/>
<rect x="497.919" y="372.488" width="63.3484" height="63.3484" transform="rotate(90 497.919 372.488)" fill="#1E1E21"/>
<rect x="560" y="248.324" width="63.3484" height="63.3484" transform="rotate(90 560 248.324)" fill="#1E1E21"/>
<rect x="560" y="310.406" width="63.3484" height="63.3484" transform="rotate(90 560 310.406)" fill="#1E1E21"/>
<rect x="249.093" y="186.746" width="62.3484" height="62.3484" transform="rotate(90 249.093 186.746)" stroke="#343438"/>
<rect x="249.093" y="248.824" width="62.3484" height="62.3484" transform="rotate(90 249.093 248.824)" stroke="#343438"/>
<rect x="187.011" y="372.988" width="62.3484" height="62.3484" transform="rotate(90 187.011 372.988)" stroke="#343438"/>
<rect x="187.011" y="186.746" width="62.3484" height="62.3484" transform="rotate(90 187.011 186.746)" stroke="#343438"/>
<rect x="187.011" y="62.582" width="62.3484" height="62.3484" transform="rotate(90 187.011 62.582)" stroke="#343438"/>
<rect x="311.174" y="62.582" width="62.3484" height="62.3484" transform="rotate(90 311.174 62.582)" stroke="#343438"/>
<rect x="249.093" y="0.5" width="62.3484" height="62.3484" transform="rotate(90 249.093 0.5)" stroke="#343438"/>
<rect x="373.256" y="0.5" width="62.3484" height="62.3484" transform="rotate(90 373.256 0.5)" stroke="#343438"/>
<rect x="311.174" y="186.746" width="62.3484" height="62.3484" transform="rotate(90 311.174 186.746)" stroke="#343438"/>
<rect x="311.174" y="248.824" width="62.3484" height="62.3484" transform="rotate(90 311.174 248.824)" stroke="#343438"/>
<rect x="311.174" y="310.906" width="62.3484" height="62.3484" transform="rotate(90 311.174 310.906)" stroke="#343438"/>
<rect x="249.093" y="435.07" width="62.3484" height="62.3484" transform="rotate(90 249.093 435.07)" stroke="#343438"/>
<rect x="373.256" y="372.988" width="62.3484" height="62.3484" transform="rotate(90 373.256 372.988)" stroke="#343438"/>
<rect x="373.256" y="186.746" width="62.3484" height="62.3484" transform="rotate(90 373.256 186.746)" stroke="#343438"/>
<rect x="435.837" y="496.652" width="63.3484" height="63.3484" transform="rotate(90 435.837 496.652)" fill="#1E1E21"/>
<rect x="497.919" y="496.652" width="63.3484" height="63.3484" transform="rotate(90 497.919 496.652)" fill="#1E1E21"/>
<rect x="249.593" y="496.652" width="63.3484" height="63.3484" transform="rotate(90 249.593 496.652)" fill="#1E1E21"/>
<rect x="311.674" y="496.652" width="63.3484" height="63.3484" transform="rotate(90 311.674 496.652)" fill="#1E1E21"/>
<rect x="125.43" y="496.652" width="63.3484" height="63.3484" transform="rotate(90 125.43 496.652)" fill="#1E1E21"/>
<rect x="63.3484" y="496.652" width="63.3484" height="63.3484" transform="rotate(90 63.3484 496.652)" fill="#1E1E21"/>
</svg>
